<svg width="182" height="47" viewBox="0 0 182 47" fill="none" xmlns="http://www.w3.org/2000/svg">
<path d="M25.0498 7.2449C25.0498 11.0813 24.5037 14.8132 23.933 18.6115C23.7813 19.6214 23.7918 21.6462 23.4345 19.7881C22.8666 16.8349 23.1057 13.3589 23.3547 10.3956C23.4932 8.74751 24.154 3.60494 26.8844 3.81497C28.9863 3.97665 30.5991 9.3059 30.2545 10.9141C29.7379 13.3249 23.9363 12.8781 24.3319 14.0649" stroke="#282833" stroke-width="2" stroke-linecap="round"/>
<path d="M35.1001 8.32178C35.113 9.36688 35.9474 17.757 35.2596 17.9535C34.1968 18.2572 34.2151 13.7331 34.2625 13.367C34.7869 9.32168 39.663 7.18413 40.1253 12.2702" stroke="#282833" stroke-width="2" stroke-linecap="round"/>
<path d="M43.715 15.8596C45.3932 15.7963 46.6266 15.6535 47.9027 14.4238C48.5346 13.8149 51.3378 11.0904 49.9367 10.1564C48.2511 9.03261 45.8609 10.4059 44.9115 11.8713C43.7552 13.656 42.9257 16.7454 44.6722 18.4919C46.5751 20.3948 49.5798 19.185 51.6118 18.3722" stroke="#282833" stroke-width="2" stroke-linecap="round"/>
<path d="M59.8675 11.9111C59.8675 8.40171 53.7888 11.1236 56.637 12.629C57.8901 13.2914 62.7059 14.766 59.9871 16.378C59.3516 16.7548 52.9005 18.8757 55.9191 18.0132" stroke="#282833" stroke-width="2" stroke-linecap="round"/>
<path d="M68.4822 11.9112C69.8577 8.98815 64.6334 8.07941 63.8957 9.6777C63.0544 11.5004 66.2228 13.0477 67.3256 13.7059C72.3246 16.6892 65.5089 18.3722 62.3801 18.3722" stroke="#282833" stroke-width="2" stroke-linecap="round"/>
<path d="M92.1726 1.50171C92.1726 6.09483 90.613 19.7803 91.4347 15.2613C92.0577 11.8352 87.407 10.0676 84.8341 11.6719C82.7561 12.9675 81.774 16.9364 85.0335 16.9364C87.6503 16.9364 90.5819 15.9653 91.4547 13.3469" stroke="#282833" stroke-width="2" stroke-linecap="round"/>
<path d="M98.6337 12.2701C95.5483 23.2615 103.956 13.6004 101.087 11.5921C97.5163 9.09291 93.5817 14.9488 97.5569 16.9364" stroke="#282833" stroke-width="2" stroke-linecap="round"/>
<path d="M105.454 10.4754C105.808 11.8553 107.466 17.6993 108.884 15.1218C110.043 13.0138 110.183 12.0366 111.376 14.4239C113.299 18.27 116.966 9.09242 117.299 9.75755" stroke="#282833" stroke-width="2" stroke-linecap="round"/>
<path d="M124.119 11.1933C124.119 10.7895 123.532 13.964 123.401 14.6631C122.704 18.3943 122.713 14.5811 123.241 13.1875C125.073 8.35918 131.192 12.2078 130.221 16.5775" stroke="#282833" stroke-width="2" stroke-linecap="round"/>
<path d="M35.459 30.2174C35.459 34.405 34.3052 38.8543 34.8209 42.9799C35.0508 44.8191 38.965 41.738 39.4075 41.3447" stroke="#282833" stroke-width="2" stroke-linecap="round"/>
<path d="M31.1519 38.4732C32.9419 38.0964 34.7145 38.1143 36.536 38.1143" stroke="#282833" stroke-width="2" stroke-linecap="round"/>
<path d="M40.8433 38.4732C40.8433 39.9915 40.7333 43.237 43.1366 43.1595C44.8981 43.1027 46.6343 39.5979 46.8856 38.1741C47.2257 36.2466 45.4894 36.2878 43.9941 36.3196C40.0711 36.403 40.794 39.0688 41.2023 42.0627" stroke="#282833" stroke-width="2" stroke-linecap="round"/>
<path d="M69.559 38.1143C67.8252 37.9216 66.746 36.3993 64.5537 36.3993C59.9356 36.3993 61.6384 38.5633 64.3344 39.9888C65.1812 40.4365 69.9129 43.6126 66.4282 43.8375C65.1405 43.9205 60.8246 43.8574 60.9443 43.8574" stroke="#282833" stroke-width="2" stroke-linecap="round"/>
<path d="M72.4306 43.1395C73.9976 43.0276 77.2078 41.0897 76.8776 39.1911C76.7003 38.1721 73.0496 39.5898 72.5902 39.9888C71.2591 41.1447 71.9612 43.7894 73.3679 44.5155C75.3169 45.5214 77.7185 44.4484 79.6096 43.8574" stroke="#282833" stroke-width="2" stroke-linecap="round"/>
<path d="M82.4811 41.3448C83.2094 41.4257 83.5162 42.1904 84.3556 42.0627C86.6571 41.7124 87.3211 38.6144 84.7145 38.194C82.8637 37.8955 80.809 38.6928 80.4869 40.7864C79.6758 46.0584 85.4493 45.5369 88.5831 44.9343" stroke="#282833" stroke-width="2" stroke-linecap="round"/>
<path d="M104.018 37.3963C104.312 40.0444 106.018 36.2505 104.816 35.821C101.572 34.6627 98.1381 40.8254 100.708 43.2392C102.963 45.3582 106.203 44.2664 108.325 42.7805" stroke="#282833" stroke-width="2" stroke-linecap="round"/>
<path d="M113.35 37.0374C112.028 38.847 110.962 44.4976 114.786 42.5412C116.92 41.4493 118.621 39.6191 118.296 37.1171C118.067 35.3544 115.813 33.8457 114.068 34.764C111.072 36.3412 111.537 40.135 111.915 42.7805" stroke="#282833" stroke-width="2" stroke-linecap="round"/>
<path d="M122.683 35.6017C122.458 36.9265 121.606 41.318 121.606 41.2651C121.606 39.7131 122.245 37.2962 123.76 36.5389C125.367 35.7353 126.179 37.0757 126.831 38.3536C128.739 42.094 128.839 41.2911 131.657 38.4733" stroke="#282833" stroke-width="2" stroke-linecap="round"/>
<path d="M136.323 23.0385C134.928 25.549 134.789 28.1056 134.548 30.9552C134.333 33.4985 133.636 36.8286 134.728 39.3107C135.878 41.9251 138.45 37.5886 139.195 36.6784" stroke="#282833" stroke-width="2" stroke-linecap="round"/>
<path d="M130.58 31.2943C132.389 31.9235 134.067 32.0122 135.964 32.0122" stroke="#282833" stroke-width="2" stroke-linecap="round"/>
<path d="M141.348 35.9606C143.019 40.3654 149.882 38.3791 147.809 34.0463C146.405 31.1097 141.643 33.4852 140.87 35.6416C139.666 38.9976 143.135 41.3522 145.895 39.251C147.713 37.8668 146.993 36.987 147.091 39.1114C147.15 40.3869 148.34 42.3384 149.843 42.1026C152.051 41.7563 153.492 38.6625 154.629 37.0375" stroke="#282833" stroke-width="2" stroke-linecap="round"/>
<path d="M156.783 32.3711C157.276 33.5606 159.063 35.6788 159.854 33.1089C160.306 31.6396 157.945 31.7556 157.262 32.2514C155.505 33.5259 154.238 35.764 154.729 37.9746C155.861 43.0701 162.964 38.9331 165.398 37.7553" stroke="#282833" stroke-width="2" stroke-linecap="round"/>
<path d="M168.628 26.2691C168.628 24.0872 168.105 28.032 168.09 28.1835C167.834 30.7401 166.243 37.9575 168.349 39.9888C170.508 42.0707 174.965 39.2835 175.807 37.0375" stroke="#282833" stroke-width="2" stroke-linecap="round"/>
<path d="M163.962 33.448C166.727 33.448 169.458 33.6289 172.218 33.8069" stroke="#282833" stroke-width="2" stroke-linecap="round"/>
<path d="M179.038 36.3196C182.591 31.8774 174.786 32.2961 176.326 37.1571C176.932 39.0736 181.66 40.1068 180.114 42.7008C178.746 44.9983 175.247 44.9343 172.936 44.9343" stroke="#282833" stroke-width="2" stroke-linecap="round"/>
<path d="M2.79501 12.629C3.45716 19.2504 3.76422 25.8768 4.74928 32.4907C5.703 38.8942 3.04802 31.5006 1.55864 30.4367C1.46532 30.3701 2.28507 33.0649 2.47594 33.4678C2.98963 34.5523 4.06458 36.9044 5.02846 37.6755C5.03869 37.6837 8.92044 32.3477 9.61499 31.6532" stroke="#282833" stroke-width="2" stroke-linecap="round"/>
</svg>
