<svg width="207" height="98" viewBox="0 0 207 98" fill="none" xmlns="http://www.w3.org/2000/svg">
<path d="M79.7745 48.7139C79.7745 45.5436 79.1493 42.4183 79.1493 39.2856C79.1493 35.152 85.5334 34.8071 89.6221 34.8071C94.7254 34.8071 99.9612 34.4574 104.941 35.2916C109.883 36.1197 110.099 39.4964 110.099 42.8736C110.099 44.8774 109.786 46.8496 109.786 48.8318C109.786 50.1821 109.751 52.1857 109.092 53.4281C108.283 54.9529 108.639 56.1873 106.504 57.0816C104.166 58.0608 100.13 58.1423 97.4724 58.1423C92.0061 58.1423 87.6551 59.3077 82.7618 57.1994C80.8903 56.3931 80.8775 54.0119 80.1566 52.721C79.6768 51.8617 80.2593 49.1324 79.1493 48.7139" stroke="#282833" stroke-width="3" stroke-linecap="round"/>
<path d="M81.7044 56.139C81.7044 55.0479 81.3391 56.4093 81.3609 56.8449C81.4001 57.6293 81.9912 58.4327 82.048 59.1887C82.2013 61.2295 84.5496 61.6688 86.667 62.2384C90.1362 63.1716 94.0456 62.6432 97.5084 62.4925C100.706 62.3534 105.222 63.161 108.006 61.9842C110.604 60.8861 110.517 56.5861 109.19 54.8683" stroke="#282833" stroke-width="3" stroke-linecap="round"/>
<path d="M94.4608 53.3769C94.0733 50.5408 94.4311 47.6262 93.9813 44.7913C93.9207 44.4098 93.6459 43.29 93.9498 42.9502C94.0721 42.8134 93.9675 41.8123 93.9655 41.8123" stroke="#282833" stroke-width="2" stroke-linecap="round"/>
<path d="M90.1448 47.9109C90.6075 47.4928 90.9367 46.9025 91.3555 46.4437C91.7639 45.9965 92.198 45.5519 92.5426 45.0693C92.8432 44.6483 93.0154 44.1813 93.203 43.7236C93.3402 43.3889 93.3916 43.0413 93.541 42.7071C93.5817 42.6162 93.8622 42.1219 93.7533 42.3875" stroke="#282833" stroke-width="2" stroke-linecap="round"/>
<path d="M97.9278 47.278C97.0073 46.5295 96.2616 45.8244 95.7501 44.8487C95.4318 44.2415 95.1336 43.6339 94.8146 43.0331C94.6379 42.7005 94.4163 42.4077 94.1935 42.0998C94.1207 41.9991 93.7568 41.651 93.824 41.8696" stroke="#282833" stroke-width="2" stroke-linecap="round"/>
<path d="M90.4986 48.2562C90.858 48.2562 91.2433 48.159 91.5913 48.0964C92.2269 47.982 92.8797 47.9362 93.5253 47.8662C94.1983 47.7933 94.9322 47.7509 95.6086 47.7384C96.4064 47.7236 98.7966 47.6233 97.9985 47.6233" stroke="#282833" stroke-width="2" stroke-linecap="round"/>
<path d="M91.8429 47.3357C92.4225 46.9115 93.5394 46.6504 93.7533 45.9548" stroke="#282833" stroke-width="2" stroke-linecap="round"/>
<path d="M95.9467 47.1629C95.5664 46.8536 95.1635 46.6263 94.9011 46.2423C94.8004 46.0949 94.473 45.4319 94.4608 45.4368" stroke="#282833" stroke-width="2" stroke-linecap="round"/>
<path d="M109.031 76.1229C109.031 79.2932 109.657 82.4185 109.657 85.5512C109.657 89.6848 103.273 90.0297 99.1839 90.0297C94.0806 90.0297 88.8448 90.3794 83.8654 89.5451C78.9232 88.7171 78.7071 85.3403 78.7071 81.9632C78.7071 79.9594 79.0197 77.9872 79.0197 76.005C79.0197 74.6547 79.0554 72.6511 79.7145 71.4087C80.5234 69.8839 80.1673 68.6495 82.3023 67.7552C84.6399 66.776 88.6755 66.6945 91.3336 66.6945C96.7999 66.6945 101.151 65.5291 106.044 67.6374C107.916 68.4437 107.929 70.8249 108.649 72.1158C109.129 72.9751 108.547 75.7044 109.657 76.1229" stroke="#282833" stroke-width="3" stroke-linecap="round"/>
<path d="M80.3886 87.4183C80.3886 86.3272 80.012 87.6886 80.0345 88.1242C80.075 88.9086 80.6843 89.712 80.7428 90.468C80.9008 92.5088 83.3213 92.9481 85.5039 93.5177C89.0799 94.4509 93.1096 93.9225 96.6788 93.7718C99.9747 93.6327 104.63 94.4403 107.5 93.2635C110.177 92.1654 110.087 87.8654 108.719 86.1476" stroke="#282833" stroke-width="3" stroke-linecap="round"/>
<path d="M94.3452 71.4599C94.7327 74.296 94.3749 77.2106 94.8247 80.0455C94.8853 80.4269 95.1601 81.5468 94.8562 81.8866C94.7339 82.0234 94.8385 83.0245 94.8404 83.0245" stroke="#282833" stroke-width="2" stroke-linecap="round"/>
<path d="M98.6612 76.9258C98.1985 77.3438 97.8694 77.9342 97.4505 78.3929C97.0422 78.8402 96.608 79.2848 96.2634 79.7674C95.9628 80.1884 95.7907 80.6553 95.6031 81.1131C95.4659 81.4478 95.4145 81.7953 95.265 82.1295C95.2243 82.2205 94.9439 82.7147 95.0527 82.4492" stroke="#282833" stroke-width="2" stroke-linecap="round"/>
<path d="M90.8782 77.5587C91.7987 78.3072 92.5444 79.0123 93.0559 79.988C93.3741 80.5952 93.6723 81.2027 93.9914 81.8035C94.168 82.1362 94.3897 82.429 94.6125 82.7369C94.6853 82.8376 95.0492 83.1856 94.9819 82.967" stroke="#282833" stroke-width="2" stroke-linecap="round"/>
<path d="M98.3074 76.5806C97.948 76.5806 97.5627 76.6778 97.2147 76.7404C96.5791 76.8548 95.9263 76.9006 95.2807 76.9706C94.6077 77.0435 93.8738 77.0859 93.1974 77.0984C92.3996 77.1132 90.0094 77.2135 90.8075 77.2135" stroke="#282833" stroke-width="2" stroke-linecap="round"/>
<path d="M96.9631 77.5012C96.3835 77.9254 95.2665 78.1866 95.0527 78.8821" stroke="#282833" stroke-width="2" stroke-linecap="round"/>
<path d="M92.8593 77.6738C93.2396 77.983 93.6425 78.2104 93.9049 78.5944C94.0056 78.7417 94.333 79.4048 94.3451 79.3999" stroke="#282833" stroke-width="2" stroke-linecap="round"/>
<path d="M126.952 65.8032C130.851 65.8032 134.694 65.2948 138.547 65.2948C143.63 65.2948 144.054 70.4862 144.054 73.811C144.054 77.9609 144.484 82.2185 143.458 86.2676C142.44 90.2864 138.287 90.4621 134.134 90.4621C131.67 90.4621 129.245 90.2079 126.807 90.2079C125.147 90.2079 122.683 90.1789 121.155 89.643C119.28 88.9852 117.762 89.2748 116.662 87.5386C115.458 85.6378 115.357 82.3561 115.357 80.1946C115.357 75.7496 113.924 72.2115 116.517 68.2324C117.508 66.7106 120.437 66.7001 122.024 66.1139C123.081 65.7237 126.437 66.1974 126.952 65.2948" stroke="#282833" stroke-width="3" stroke-linecap="round"/>
<path d="M115.49 87.7838C115.521 86.693 115.118 88.0473 115.127 88.4833C115.145 89.2681 115.714 90.0822 115.75 90.839C115.846 92.8821 118.182 93.3643 120.283 93.9724C123.726 94.9689 127.649 94.5122 131.115 94.4249C134.315 94.3443 138.808 95.2344 141.624 94.1089C144.251 93.0586 144.283 88.758 143.004 87.0164" stroke="#282833" stroke-width="3" stroke-linecap="round"/>
<path d="M121.218 77.7456C124.705 77.4305 128.29 77.7214 131.776 77.3556C132.245 77.3064 133.622 77.0829 134.04 77.33C134.208 77.4295 135.439 77.3445 135.439 77.3428" stroke="#282833" stroke-width="2" stroke-linecap="round"/>
<path d="M127.939 74.2358C128.453 74.6121 129.179 74.8797 129.744 75.2203C130.294 75.5524 130.84 75.9054 131.434 76.1856C131.952 76.4301 132.526 76.5701 133.089 76.7226C133.5 76.8342 133.928 76.876 134.339 76.9975C134.451 77.0306 135.058 77.2587 134.732 77.1701" stroke="#282833" stroke-width="2" stroke-linecap="round"/>
<path d="M128.718 80.5648C129.638 79.8163 130.505 79.2099 131.705 78.794C132.452 78.5352 133.199 78.2927 133.938 78.0333C134.347 77.8896 134.707 77.7094 135.086 77.5282C135.21 77.469 135.638 77.1731 135.369 77.2278" stroke="#282833" stroke-width="2" stroke-linecap="round"/>
<path d="M127.515 74.5236C127.515 74.8158 127.634 75.1292 127.711 75.4122C127.852 75.929 127.908 76.4598 127.994 76.9848C128.084 77.532 128.136 78.1289 128.152 78.6789C128.17 79.3277 128.293 81.2712 128.293 80.6223" stroke="#282833" stroke-width="2" stroke-linecap="round"/>
<path d="M128.647 75.6168C129.169 76.0881 129.49 76.9964 130.345 77.1703" stroke="#282833" stroke-width="2" stroke-linecap="round"/>
<path d="M128.859 78.9538C129.24 78.6446 129.519 78.3169 129.991 78.1036C130.173 78.0217 130.988 77.7555 130.982 77.7456" stroke="#282833" stroke-width="2" stroke-linecap="round"/>
<path d="M61.4118 89.9535C57.513 89.9535 53.6698 90.4619 49.8173 90.4619C44.7339 90.4619 44.3099 85.2705 44.3099 81.9457C44.3099 77.7958 43.8797 73.5382 44.9057 69.4891C45.924 65.4703 50.0766 65.2946 54.2296 65.2946C56.6939 65.2946 59.1191 65.5488 61.5567 65.5488C63.2173 65.5488 65.6812 65.5778 67.2091 66.1137C69.0841 66.7715 70.6022 66.482 71.7019 68.2181C72.9061 70.1189 73.0063 73.4006 73.0063 75.5621C73.0063 80.0071 74.4395 83.5452 71.8469 87.5243C70.8553 89.0462 67.927 89.0566 66.3395 89.6428C65.2828 90.033 61.9264 89.5593 61.4118 90.4619" stroke="#282833" stroke-width="3" stroke-linecap="round"/>
<path d="M44.647 89.3555C44.5761 88.2659 44.2997 89.6411 44.3498 90.0752C44.4399 90.8567 45.0824 91.6336 45.1882 92.3861C45.4739 94.4175 47.8474 94.7553 49.9989 95.2331C53.5239 96.016 57.3935 95.3204 60.8416 95.0212C64.0256 94.7449 68.5883 95.3573 71.2917 94.0626C73.8146 92.8544 73.4479 88.5641 72.0111 86.9057" stroke="#282833" stroke-width="3" stroke-linecap="round"/>
<path d="M67.146 78.011C63.6584 78.3261 60.0741 78.0352 56.5879 78.401C56.1188 78.4502 54.7417 78.6737 54.3238 78.4265C54.1556 78.3271 52.9244 78.4121 52.9244 78.4138" stroke="#282833" stroke-width="2" stroke-linecap="round"/>
<path d="M60.4244 81.5208C59.9103 81.1445 59.1843 80.8769 58.6201 80.5363C58.0701 80.2042 57.5234 79.8512 56.9299 79.5709C56.4122 79.3265 55.838 79.1865 55.275 79.0339C54.8635 78.9224 54.436 78.8806 54.025 78.7591C53.9132 78.726 53.3054 78.4979 53.632 78.5865" stroke="#282833" stroke-width="2" stroke-linecap="round"/>
<path d="M59.646 75.1919C58.7255 75.9404 57.8585 76.5468 56.6586 76.9627C55.9118 77.2215 55.1648 77.464 54.4259 77.7234C54.0168 77.8671 53.6568 78.0474 53.2781 78.2285C53.1543 78.2877 52.7263 78.5836 52.9951 78.5289" stroke="#282833" stroke-width="2" stroke-linecap="round"/>
<path d="M60.8489 81.233C60.8489 80.9408 60.7294 80.6274 60.6524 80.3444C60.5118 79.8276 60.4555 79.2968 60.3694 78.7718C60.2796 78.2246 60.2275 77.6277 60.2121 77.0777C60.194 76.4289 60.0706 74.4854 60.0706 75.1343" stroke="#282833" stroke-width="2" stroke-linecap="round"/>
<path d="M59.7168 80.14C59.1953 79.6687 58.8741 78.7604 58.0187 78.5866" stroke="#282833" stroke-width="2" stroke-linecap="round"/>
<path d="M59.5045 76.8027C59.1242 77.112 58.8447 77.4396 58.3725 77.653C58.1912 77.7349 57.3758 78.0011 57.3819 78.011" stroke="#282833" stroke-width="2" stroke-linecap="round"/>
<path d="M1 14.0359C1 17.0694 1.17292 19.4092 3.32333 21.9804C5.453 24.5267 8.62339 17.8345 8.76722 16.033C8.9796 13.3729 8.00284 15.8308 7.76499 16.9767C7.36529 18.9022 7.57469 20.8222 7.96999 22.7266" stroke="#282833" stroke-width="2" stroke-linecap="round"/>
<path d="M17.4 14.431C17.1347 12.1301 13.4876 15.0853 13.0267 15.66C10.52 18.7855 16.3544 17.6774 17.7644 18.2058C19.4841 18.8501 19.4139 21.3849 17.7872 22.0902C17.0145 22.4252 13.0683 22.0482 14.12 21.5416" stroke="#282833" stroke-width="2" stroke-linecap="round"/>
<path d="M22.32 16.8012C24.7031 18.6381 28.3537 15.6302 27.5589 13.0265C26.8076 10.5655 21.9355 15.3239 21.5228 16.3842C20.6967 18.5067 22.2274 20.1993 23.96 21.4977C25.9785 23.0103 27.8768 22.0062 29.7 20.7515" stroke="#282833" stroke-width="2" stroke-linecap="round"/>
<path d="M42.82 19.9614C43.1645 16.974 44.4037 13.877 44.8017 10.8098C44.9498 9.66781 45.3752 8.51489 46.305 10.1076C48.1506 13.2689 51.9025 16.1919 53.07 19.5664" stroke="#282833" stroke-width="2" stroke-linecap="round"/>
<path d="M44.46 17.1962C47.0654 17.1265 49.6509 16.6148 52.25 16.4061" stroke="#282833" stroke-width="2" stroke-linecap="round"/>
<path d="M56.35 14.0359C54.4293 11.1444 56.0143 14.8314 56.555 15.9891C57.8983 18.8652 56.2713 15.8697 56.0311 14.7382C55.4943 12.2098 57.796 7.23749 60.04 10.4806" stroke="#282833" stroke-width="2" stroke-linecap="round"/>
<path d="M64.55 8.90048C64.55 11.4903 65.1804 13.9067 66.0989 16.3402C66.7636 18.1015 64.55 12.7936 64.55 10.9195C64.55 8.80533 69.06 7.81972 69.06 10.0856" stroke="#282833" stroke-width="2" stroke-linecap="round"/>
<path d="M73.98 10.0856C72.9528 12.0651 73.4349 13.3999 74.9367 15.221C76.7003 17.3598 78.3745 13.3339 78.6494 12.0388C78.9945 10.4135 78.6404 7.57978 76.235 7.78132C73.2443 8.03188 73.8767 12.8298 74.8 14.431" stroke="#282833" stroke-width="2" stroke-linecap="round"/>
<path d="M81.36 8.50547C82.5255 9.75316 84.3948 15.8837 85.05 12.4119C85.3037 11.0674 86.3711 6.31814 87.305 9.31748C88.0628 11.7514 88.8997 15.8136 89.97 11.4024C90.3002 10.0414 94.07 3.5344 94.07 4.55517" stroke="#282833" stroke-width="2" stroke-linecap="round"/>
<path d="M106.37 4.16016C106.37 7.32693 106.598 10.48 106.78 13.6409" stroke="#282833" stroke-width="2" stroke-linecap="round"/>
<path d="M111.29 4.16016C111.29 6.22433 107.86 8.15404 108.215 9.77837C108.353 10.4085 112.185 11.9173 112.93 12.4558" stroke="#282833" stroke-width="2" stroke-linecap="round"/>
<path d="M116.62 8.50553C117.383 8.50553 118.957 8.80113 119.49 8.08855C120.031 7.36444 121.097 4.44706 119.9 3.85296C117.949 2.88467 115.841 6.30582 115.39 7.53991C113.899 11.6236 118.227 14.2194 121.54 11.6658" stroke="#282833" stroke-width="2" stroke-linecap="round"/>
<path d="M124.82 4.95032C125 6.50689 128.873 12.5473 129.33 11.6659" stroke="#282833" stroke-width="2" stroke-linecap="round"/>
<path d="M131.79 6.13525C131.44 9.50727 128.373 12.9439 126.87 16.011C126.427 16.9143 126.314 18.1268 125.64 18.7762" stroke="#282833" stroke-width="2" stroke-linecap="round"/>
<path d="M139.58 4.5552C137.802 2.84167 136.039 4.84262 135.161 6.64008C134.568 7.85516 138.03 8.36531 138.669 8.59329C140.5 9.24675 137.985 10.867 137.302 11.0512C136.597 11.2416 132.235 11.2707 133.43 11.2707" stroke="#282833" stroke-width="2" stroke-linecap="round"/>
<path d="M149.83 1C149.83 3.67736 149.402 6.31676 149.283 8.9884C149.166 11.6175 152.224 10.3069 153.93 9.69068" stroke="#282833" stroke-width="2" stroke-linecap="round"/>
<path d="M149.01 5.74045C149.902 5.11506 151.24 5.3454 152.29 5.3454" stroke="#282833" stroke-width="2" stroke-linecap="round"/>
<path d="M157.62 5.74036C156.393 5.88813 156.246 8.42569 156.527 9.16394C158.004 13.0449 159.662 10.8416 161.128 8.68113C163.762 4.80006 157.649 5.0645 157.21 9.29561" stroke="#282833" stroke-width="2" stroke-linecap="round"/>
<path d="M170.33 4.95032C170.33 7.2254 170.33 9.50049 170.33 11.7756C170.33 13.3837 171.101 8.42334 172.357 7.3644C174.397 5.64454 176.574 10.0939 175.569 11.183C175.328 11.4445 176.341 4.8607 178.325 6.77185C179.569 7.97052 179.76 13.361 179.76 11.6659" stroke="#282833" stroke-width="2" stroke-linecap="round"/>
<path d="M184.27 7.71548C183.985 8.60657 183.648 13.249 185.91 12.2803C187.73 11.5008 188.471 8.63513 188.37 6.9254C188.242 4.77128 181.574 6.87837 184.68 11.6658" stroke="#282833" stroke-width="2" stroke-linecap="round"/>
<path d="M193.7 6.13525C193.7 7.03514 194.117 12.0668 195.34 10.3928C196.397 8.94593 197.605 7.60174 198.62 6.13525" stroke="#282833" stroke-width="2" stroke-linecap="round"/>
<path d="M199.03 10.0856C201.16 10.2063 205.281 10.8009 205.18 7.49595C205.096 4.74782 202.23 7.00238 201.285 7.91293C200.353 8.81116 198.029 11.7598 199.463 13.0264C200.968 14.3554 204.1 15.7411 206 14.826" stroke="#282833" stroke-width="2" stroke-linecap="round"/>
<path d="M7.15 38.1328C6.09061 39.2556 5.43568 40.4307 5.25944 41.9953C4.69761 46.9832 4.06902 59.821 10.1794 62.0541C14.0058 63.4525 18.2716 64.5204 22.32 65.1704C23.1845 65.3093 25.8159 65.3899 24.9394 65.3899C20.5323 65.3899 15.7881 66.7475 11.5006 65.9825C7.87991 65.3364 11.0322 65.7849 13.0722 65.7849C17.0289 65.7849 24.2006 67.1668 27.8778 65.3021C27.9696 65.2556 24.5903 61.2153 24.2789 60.5618C23.7166 59.3816 20.9962 55.3267 23.55 58.2794" stroke="#282833" stroke-width="2" stroke-linecap="round"/>
</svg>
