<svg width="173" height="67" viewBox="0 0 173 67" fill="none" xmlns="http://www.w3.org/2000/svg">
<path d="M1.5003 2.42493C0.569435 11.7336 2.57715 21.1452 2.57715 30.5025C2.57715 35.7021 1.076 16.2853 6.18654 15.327C11.0865 14.4083 10.9559 21.9496 8.51969 24.2409C7.27032 25.4159 2.95552 29.0064 1.14136 27.1922" stroke="#372309" stroke-width="2" stroke-linecap="round"/>
<path d="M16.576 12.1165C16.576 14.3522 16.344 25.6229 19.647 24.5799C23.0978 23.4901 23.0371 17.0108 23.0371 14.1904C23.0371 9.67525 22.3001 16.2177 22.1397 17.5006C22.0051 18.5772 22.3485 25.4976 24.1139 24.3206" stroke="#372309" stroke-width="2" stroke-linecap="round"/>
<path d="M28.4212 14.2702C28.4212 10.8382 28.0623 21.128 28.0623 24.56C28.0623 26.9403 28.5545 19.8081 29.1391 17.5007C29.5079 16.045 31.1033 13.5922 32.8881 13.5922C34.8797 13.5922 34.897 19.4826 34.8822 20.6514C34.8504 23.1661 34.3223 23.7603 34.7227 20.6714C34.9574 18.8606 35.2782 15.4887 37.3949 14.7089C38.6348 14.2521 38.8543 21.3419 38.8107 22.1271C38.7366 23.4619 38.1297 26.3982 38.8306 23.2438" stroke="#372309" stroke-width="2" stroke-linecap="round"/>
<path d="M46.3686 8.52698C46.6542 16.5228 45.5187 24.5763 44.7533 32.5365C44.3221 37.0216 44.6585 32.9347 45.2918 30.7816" stroke="#372309" stroke-width="2" stroke-linecap="round"/>
<path d="M47.8043 16.7827C47.9626 11.5586 58.8634 13.4929 55.1827 18.2983C54.2313 19.5404 46.4006 23.5067 47.0864 21.449" stroke="#372309" stroke-width="2" stroke-linecap="round"/>
<path d="M78.3148 1.34802C77.9668 8.82913 75.0842 16.0385 75.0842 23.5628C75.0842 26.2847 80.2992 22.7603 81.5453 22.1669" stroke="#372309" stroke-width="2" stroke-linecap="round"/>
<path d="M72.5718 16.4238C74.9443 15.5298 77.2819 15.1527 79.7507 14.629" stroke="#372309" stroke-width="2" stroke-linecap="round"/>
<path d="M86.2115 3.86072C84.9891 5.49061 84.85 8.48913 84.5365 10.3217C83.7881 14.6957 83.8458 19.8918 82.2631 24.0813C81.885 25.0823 81.8974 23.5021 81.9042 23.2438C81.9475 21.5968 82.7824 20.3131 83.8784 19.1359C84.5003 18.4679 88.1357 14.8477 88.5447 16.4837C89.0265 18.4107 87.5087 22.2701 88.445 23.8022C89.1626 24.9764 95.3813 19.8134 95.9031 19.2156C96.5561 18.4676 99.1524 13.9408 96.4216 14.669C90.8557 16.1532 94.0715 29.4005 102.364 22.8849" stroke="#372309" stroke-width="2" stroke-linecap="round"/>
<path d="M104.877 11.7574C103.906 15.5874 103.441 19.7073 103.441 23.6625C103.441 25.7499 104.232 19.4592 105.356 17.7C107.013 15.1057 108.889 14.5144 109.344 17.7C109.556 19.1848 109.049 23.546 109.683 22.1868C110.885 19.61 112.15 17.3626 114.688 15.9452C115.527 15.4766 117.081 14.4703 117.081 15.9651C117.081 19.0087 116.722 22.0205 116.722 25.0385" stroke="#372309" stroke-width="2" stroke-linecap="round"/>
<path d="M17.2941 40.1143C16.6934 43.6325 15.8616 47.101 15.1803 50.6035C14.9067 52.0098 13.6417 55.9711 14.8213 57.4035C16.3454 59.2541 23.332 52.5704 24.473 51.6005" stroke="#372309" stroke-width="2" stroke-linecap="round"/>
<path d="M11.5508 48.0111H19.8065" stroke="#372309" stroke-width="2" stroke-linecap="round"/>
<path d="M23.755 50.5238C23.523 51.568 22.764 58.6373 25.3504 57.0247C26.8612 56.0826 28.5198 54.0688 28.7005 52.2387C28.9088 50.1297 27.5171 48.4934 25.4301 48.1707C21.4508 47.5553 22.8919 52.0795 23.0372 54.1132" stroke="#372309" stroke-width="2" stroke-linecap="round"/>
<path d="M49.5992 47.2932C48.4553 49.6955 48.8234 52.7105 49.5992 55.19C50.4773 57.9965 53.4137 55.9547 54.3851 54.1929C55.7303 51.7534 50.2838 45.7756 47.8045 46.8943C45.9584 47.7273 46.3687 51.1358 46.3687 52.6774" stroke="#372309" stroke-width="2" stroke-linecap="round"/>
<path d="M61.0855 40.4731C59.2104 48.0483 58.0999 55.8378 57.0573 63.5654C56.8715 64.9425 56.5869 65.7411 56.8978 63.5654C57.5906 58.7156 58.2673 53.4867 59.9687 48.8685C60.3469 47.8421 60.5369 47.1366 61.7635 47.014C67.0238 46.4879 69.2277 55.6968 64.0966 56.7853C63.1465 56.9868 58.1708 56.0083 60.0086 55.5489" stroke="#372309" stroke-width="2" stroke-linecap="round"/>
<path d="M69.7002 55.549C71.836 55.0269 78.7599 50.0049 75.6029 47.7319C74.2508 46.7584 71.7136 47.2944 70.8568 48.6891C69.8071 50.3979 69.4052 54.346 70.9964 55.868C73.1754 57.9523 76.1803 57.0461 78.6739 56.2669" stroke="#372309" stroke-width="2" stroke-linecap="round"/>
<path d="M84.417 46.2163C83.8082 48.9558 83.1413 57.3137 82.9812 54.5119C82.8578 52.3522 85.3676 46.51 88.166 47.333C89.7147 47.7885 88.8496 52.7017 89.1431 53.9735C89.3716 54.9636 96.1274 51.607 96.9801 51.2415" stroke="#372309" stroke-width="2" stroke-linecap="round"/>
<path d="M39.5486 64.5226C59.8855 64.0805 120.911 65.2405 100.569 65.2405" stroke="#372309" stroke-width="2" stroke-linecap="round"/>
<path d="M126.414 39.7553C126.532 44.0146 130.62 48.6495 134.011 50.8228C139.194 54.1439 145.855 51.1404 150.244 48.011C151.387 47.1957 169.904 34.4586 168.41 32.2174" stroke="#372309" stroke-width="2" stroke-linecap="round"/>
<path d="M169.846 32.5764C166.416 32.5764 161.072 33.075 158.2 31.1606C155.96 29.6673 163.415 32.619 166.097 32.8556C167.421 32.9724 168.975 33.1239 170.205 32.4967C170.521 32.3359 171.273 31.5683 171.023 31.8187C169.508 33.3334 168.297 35.4367 167.533 37.4222C167.158 38.3981 166.05 41.909 168.051 41.909" stroke="#372309" stroke-width="2" stroke-linecap="round"/>
</svg>
